<mxfile host="65bd71144e">
    <diagram id="BycHCdgutCTcq1UNPzrh" name="PÃ¡gina-1">
        <mxGraphModel dx="1462" dy="571" grid="1" gridSize="10" guides="1" tooltips="1" connect="1" arrows="1" fold="1" page="1" pageScale="1" pageWidth="827" pageHeight="1169" math="0" shadow="0">
            <root>
                <mxCell id="0"/>
                <mxCell id="1" parent="0"/>
                <mxCell id="4" style="edgeStyle=none;html=1;entryX=0.5;entryY=0;entryDx=0;entryDy=0;" edge="1" parent="1" source="2" target="5">
                    <mxGeometry relative="1" as="geometry">
                        <mxPoint x="235" y="140" as="targetPoint"/>
                    </mxGeometry>
                </mxCell>
                <mxCell id="2" value="inicio" style="ellipse;whiteSpace=wrap;html=1;fillColor=#9933FF;" vertex="1" parent="1">
                    <mxGeometry x="205" width="90" height="80" as="geometry"/>
                </mxCell>
                <mxCell id="42" style="edgeStyle=none;html=1;entryX=0.5;entryY=0;entryDx=0;entryDy=0;" edge="1" parent="1" source="5" target="41">
                    <mxGeometry relative="1" as="geometry"/>
                </mxCell>
                <mxCell id="5" value="mag=(random.randint(1,100)&lt;br&gt;i=1" style="whiteSpace=wrap;html=1;fillColor=#00CC00;" vertex="1" parent="1">
                    <mxGeometry x="175" y="150" width="150" height="60" as="geometry"/>
                </mxCell>
                <mxCell id="45" style="edgeStyle=none;html=1;entryX=0.5;entryY=0;entryDx=0;entryDy=0;" edge="1" parent="1" source="7" target="44">
                    <mxGeometry relative="1" as="geometry">
                        <Array as="points">
                            <mxPoint x="390" y="370"/>
                        </Array>
                    </mxGeometry>
                </mxCell>
                <mxCell id="47" style="edgeStyle=none;html=1;entryX=0.5;entryY=0;entryDx=0;entryDy=0;" edge="1" parent="1" source="7" target="24">
                    <mxGeometry relative="1" as="geometry">
                        <Array as="points">
                            <mxPoint x="100" y="370"/>
                        </Array>
                    </mxGeometry>
                </mxCell>
                <mxCell id="7" value="usu!=mag" style="rhombus;whiteSpace=wrap;html=1;fillColor=#CCCC00;" vertex="1" parent="1">
                    <mxGeometry x="210" y="330" width="80" height="80" as="geometry"/>
                </mxCell>
                <mxCell id="12" value="fin" style="ellipse;whiteSpace=wrap;html=1;fillColor=#9933FF;" vertex="1" parent="1">
                    <mxGeometry x="345" y="530" width="90" height="70" as="geometry"/>
                </mxCell>
                <mxCell id="38" style="edgeStyle=none;html=1;entryX=0.5;entryY=0;entryDx=0;entryDy=0;" edge="1" parent="1" source="24" target="29">
                    <mxGeometry relative="1" as="geometry">
                        <Array as="points">
                            <mxPoint x="175" y="470"/>
                        </Array>
                    </mxGeometry>
                </mxCell>
                <mxCell id="51" style="edgeStyle=none;html=1;entryX=0.5;entryY=0;entryDx=0;entryDy=0;" edge="1" parent="1" source="24" target="48">
                    <mxGeometry relative="1" as="geometry">
                        <Array as="points">
                            <mxPoint x="5" y="470"/>
                        </Array>
                    </mxGeometry>
                </mxCell>
                <mxCell id="24" value="n&amp;lt;mag" style="rhombus;whiteSpace=wrap;html=1;fillColor=#CCCC00;" vertex="1" parent="1">
                    <mxGeometry x="60" y="430" width="80" height="80" as="geometry"/>
                </mxCell>
                <mxCell id="53" style="edgeStyle=none;html=1;" edge="1" parent="1" source="29">
                    <mxGeometry relative="1" as="geometry">
                        <mxPoint x="100" y="660" as="targetPoint"/>
                        <Array as="points">
                            <mxPoint x="175" y="660"/>
                        </Array>
                    </mxGeometry>
                </mxCell>
                <mxCell id="29" value="el numero es mayor" style="shape=document;whiteSpace=wrap;html=1;boundedLbl=1;fillColor=#FF0000;" vertex="1" parent="1">
                    <mxGeometry x="130" y="530" width="90" height="70" as="geometry"/>
                </mxCell>
                <mxCell id="43" style="edgeStyle=none;html=1;entryX=0.5;entryY=0;entryDx=0;entryDy=0;" edge="1" parent="1" source="41" target="7">
                    <mxGeometry relative="1" as="geometry"/>
                </mxCell>
                <mxCell id="41" value="n" style="shape=parallelogram;perimeter=parallelogramPerimeter;whiteSpace=wrap;html=1;fixedSize=1;fillColor=#FF0000;" vertex="1" parent="1">
                    <mxGeometry x="190" y="250" width="120" height="40" as="geometry"/>
                </mxCell>
                <mxCell id="46" style="edgeStyle=none;html=1;entryX=0.5;entryY=0;entryDx=0;entryDy=0;" edge="1" parent="1" source="44" target="12">
                    <mxGeometry relative="1" as="geometry"/>
                </mxCell>
                <mxCell id="44" value="adivinaste" style="shape=document;whiteSpace=wrap;html=1;boundedLbl=1;fillColor=#FF0000;" vertex="1" parent="1">
                    <mxGeometry x="340" y="410" width="100" height="60" as="geometry"/>
                </mxCell>
                <mxCell id="52" style="edgeStyle=none;html=1;" edge="1" parent="1" source="48">
                    <mxGeometry relative="1" as="geometry">
                        <mxPoint x="100" y="660" as="targetPoint"/>
                        <Array as="points">
                            <mxPoint x="5" y="660"/>
                        </Array>
                    </mxGeometry>
                </mxCell>
                <mxCell id="48" value="el valor es menor" style="shape=document;whiteSpace=wrap;html=1;boundedLbl=1;fillColor=#FF0000;" vertex="1" parent="1">
                    <mxGeometry x="-40" y="530" width="90" height="70" as="geometry"/>
                </mxCell>
                <mxCell id="54" value="" style="endArrow=none;html=1;" edge="1" parent="1">
                    <mxGeometry width="50" height="50" relative="1" as="geometry">
                        <mxPoint x="100" y="720" as="sourcePoint"/>
                        <mxPoint x="100" y="660" as="targetPoint"/>
                    </mxGeometry>
                </mxCell>
                <mxCell id="57" style="edgeStyle=none;html=1;entryX=0.5;entryY=0;entryDx=0;entryDy=0;" edge="1" parent="1" source="55" target="56">
                    <mxGeometry relative="1" as="geometry"/>
                </mxCell>
                <mxCell id="55" value="n" style="shape=parallelogram;perimeter=parallelogramPerimeter;whiteSpace=wrap;html=1;fixedSize=1;fillColor=#FF0000;" vertex="1" parent="1">
                    <mxGeometry x="40" y="710" width="120" height="40" as="geometry"/>
                </mxCell>
                <mxCell id="58" style="edgeStyle=none;html=1;" edge="1" parent="1" source="56">
                    <mxGeometry relative="1" as="geometry">
                        <mxPoint x="250" y="300" as="targetPoint"/>
                        <Array as="points">
                            <mxPoint x="100" y="890"/>
                            <mxPoint x="-120" y="890"/>
                            <mxPoint x="-120" y="300"/>
                        </Array>
                    </mxGeometry>
                </mxCell>
                <mxCell id="56" value="i=i+1" style="whiteSpace=wrap;html=1;fillColor=#FF0000;" vertex="1" parent="1">
                    <mxGeometry x="50" y="800" width="100" height="40" as="geometry"/>
                </mxCell>
            </root>
        </mxGraphModel>
    </diagram>
</mxfile>